<svg xmlns="http://www.w3.org/2000/svg" viewBox="0 0 130 160" width="130" height="160">
  <!-- Seal 07: Imperial Laurel with draped ribbon -->
  <defs>
    <linearGradient id="s7leafL" x1="0" y1="0" x2="1" y2="1">
      <stop offset="0%" stop-color="#d4a017"/>
      <stop offset="100%" stop-color="#a07818"/>
    </linearGradient>
    <linearGradient id="s7leafR" x1="1" y1="0" x2="0" y2="1">
      <stop offset="0%" stop-color="#d4a017"/>
      <stop offset="100%" stop-color="#a07818"/>
    </linearGradient>
    <radialGradient id="s7bg" cx="45%" cy="40%" r="55%">
      <stop offset="0%" stop-color="#fffef5"/>
      <stop offset="100%" stop-color="#f5f0e0"/>
    </radialGradient>
  </defs>

  <!-- Wide draped ribbon -->
  <path d="M25,112 L10,148 L32,136 L30,158 L50,118" fill="#8a6d1b" opacity="0.8"/>
  <path d="M105,112 L120,148 L98,136 L100,158 L80,118" fill="#a07818" opacity="0.8"/>
  <line x1="28" y1="113" x2="14" y2="146" stroke="#d4a017" stroke-width="1" opacity="0.5"/>
  <line x1="102" y1="113" x2="116" y2="146" stroke="#d4a017" stroke-width="1" opacity="0.5"/>

  <!-- Base circle -->
  <circle cx="65" cy="65" r="63" fill="url(#s7bg)" stroke="#8a6d1b" stroke-width="1.5"/>
  <circle cx="65" cy="65" r="60" fill="none" stroke="#c9a020" stroke-width="0.5"/>
  <!-- Left laurel -->
  <g>
    <path d="M58,115 C50,105 40,90 36,75 C33,62 34,50 38,40 C42,32 48,25 55,20" fill="none" stroke="#8a6d1b" stroke-width="1.2"/>
    <path d="M55,22 C50,18 46,20 48,25 C50,28 54,26 55,22Z" fill="url(#s7leafL)" stroke="#8a6d1b" stroke-width="0.3"/>
    <path d="M50,28 C44,25 40,28 42,33 C44,36 49,34 50,28Z" fill="url(#s7leafL)" stroke="#8a6d1b" stroke-width="0.3"/>
    <path d="M45,35 C39,33 36,36 38,41 C40,44 44,42 45,35Z" fill="url(#s7leafL)" stroke="#8a6d1b" stroke-width="0.3"/>
    <path d="M41,43 C35,41 32,45 34,50 C36,53 40,50 41,43Z" fill="url(#s7leafL)" stroke="#8a6d1b" stroke-width="0.3"/>
    <path d="M38,52 C32,51 30,55 32,60 C34,63 37,60 38,52Z" fill="url(#s7leafL)" stroke="#8a6d1b" stroke-width="0.3"/>
    <path d="M36,62 C30,62 28,66 31,70 C33,73 36,69 36,62Z" fill="url(#s7leafL)" stroke="#8a6d1b" stroke-width="0.3"/>
    <path d="M36,72 C30,73 29,77 32,81 C34,84 37,79 36,72Z" fill="url(#s7leafL)" stroke="#8a6d1b" stroke-width="0.3"/>
    <path d="M38,82 C33,84 32,88 35,92 C37,95 40,90 38,82Z" fill="url(#s7leafL)" stroke="#8a6d1b" stroke-width="0.3"/>
    <path d="M42,91 C37,94 37,98 40,101 C43,103 45,98 42,91Z" fill="url(#s7leafL)" stroke="#8a6d1b" stroke-width="0.3"/>
    <path d="M48,99 C44,103 44,107 48,109 C51,110 52,105 48,99Z" fill="url(#s7leafL)" stroke="#8a6d1b" stroke-width="0.3"/>
    <path d="M53,106 C50,110 50,113 54,114 C57,115 57,110 53,106Z" fill="url(#s7leafL)" stroke="#8a6d1b" stroke-width="0.3"/>
  </g>
  <!-- Right laurel -->
  <g>
    <path d="M72,115 C80,105 90,90 94,75 C97,62 96,50 92,40 C88,32 82,25 75,20" fill="none" stroke="#8a6d1b" stroke-width="1.2"/>
    <path d="M75,22 C80,18 84,20 82,25 C80,28 76,26 75,22Z" fill="url(#s7leafR)" stroke="#8a6d1b" stroke-width="0.3"/>
    <path d="M80,28 C86,25 90,28 88,33 C86,36 81,34 80,28Z" fill="url(#s7leafR)" stroke="#8a6d1b" stroke-width="0.3"/>
    <path d="M85,35 C91,33 94,36 92,41 C90,44 86,42 85,35Z" fill="url(#s7leafR)" stroke="#8a6d1b" stroke-width="0.3"/>
    <path d="M89,43 C95,41 98,45 96,50 C94,53 90,50 89,43Z" fill="url(#s7leafR)" stroke="#8a6d1b" stroke-width="0.3"/>
    <path d="M92,52 C98,51 100,55 98,60 C96,63 93,60 92,52Z" fill="url(#s7leafR)" stroke="#8a6d1b" stroke-width="0.3"/>
    <path d="M94,62 C100,62 102,66 99,70 C97,73 94,69 94,62Z" fill="url(#s7leafR)" stroke="#8a6d1b" stroke-width="0.3"/>
    <path d="M94,72 C100,73 101,77 98,81 C96,84 93,79 94,72Z" fill="url(#s7leafR)" stroke="#8a6d1b" stroke-width="0.3"/>
    <path d="M92,82 C97,84 98,88 95,92 C93,95 90,90 92,82Z" fill="url(#s7leafR)" stroke="#8a6d1b" stroke-width="0.3"/>
    <path d="M88,91 C93,94 93,98 90,101 C87,103 85,98 88,91Z" fill="url(#s7leafR)" stroke="#8a6d1b" stroke-width="0.3"/>
    <path d="M82,99 C86,103 86,107 82,109 C79,110 78,105 82,99Z" fill="url(#s7leafR)" stroke="#8a6d1b" stroke-width="0.3"/>
    <path d="M77,106 C80,110 80,113 76,114 C73,115 73,110 77,106Z" fill="url(#s7leafR)" stroke="#8a6d1b" stroke-width="0.3"/>
  </g>
  <!-- Ribbon tie -->
  <path d="M58,116 C62,112 65,110 65,110 C65,110 68,112 72,116" fill="none" stroke="#8a6d1b" stroke-width="1.8" stroke-linecap="round"/>

  <!-- Curved text top — r=34 inside laurel wreath -->
  <path id="s7arcT" d="M 33,58 A 34,34 0 0,1 97,58" fill="none"/>
  <text font-family="'Playfair Display', Georgia, serif" font-size="5" font-weight="700" fill="#1a2550" letter-spacing="0.8">
    <textPath href="#s7arcT" startOffset="50%" text-anchor="middle">SCHOLARLY ARTICLE</textPath>
  </text>
  <!-- Central AIR -->
  <text x="65" y="72" text-anchor="middle" font-family="'Playfair Display', Georgia, serif" font-size="22" font-weight="900" fill="#1a2550" letter-spacing="3">AIR</text>
  <!-- Curved text bottom -->
  <path id="s7arcB" d="M 36,76 A 32,32 0 0,0 94,76" fill="none"/>
  <text font-family="'Playfair Display', Georgia, serif" font-size="5" font-weight="700" fill="#1a2550" letter-spacing="0.8">
    <textPath href="#s7arcB" startOffset="50%" text-anchor="middle">PEER REVIEWED</textPath>
  </text>
</svg>