<?xml version="1.0" standalone="no"?>
<!DOCTYPE svg PUBLIC "-//W3C//DTD SVG 1.1//EN" "http://www.w3.org/Graphics/SVG/1.1/DTD/svg11.dtd">
<svg xmlns="http://www.w3.org/2000/svg" id="canvas" viewBox="225.735 260.235 1088.503 236.587" width="1088.5030517578125" height="236.58700561523438"><path d="M 277.91,286.15 C 276.45 286.00, 275.30 286.10, 273.35 287.83 C 271.41 289.57, 270.78 291.14, 268.20 294.81 C 265.61 298.48, 263.90 300.98, 260.43 306.20 C 256.96 311.42, 254.73 314.63, 250.85 320.89 C 246.97 327.15, 244.58 330.77, 241.03 337.50 C 237.49 344.23, 235.53 347.91, 233.14 354.55 C 230.75 361.19, 229.72 364.64, 229.09 370.70 C 228.47 376.76, 228.59 379.79, 230.03 384.87 C 231.46 389.95, 232.78 392.33, 236.26 396.10 C 239.74 399.87, 242.27 401.38, 247.41 403.72 C 252.54 406.05, 255.80 406.75, 261.93 407.77 C 268.06 408.80, 271.57 408.81, 278.05 408.84 C 284.53 408.86, 288.16 408.52, 294.34 407.92 C 300.53 407.32, 303.75 406.78, 308.98 405.82 C 314.22 404.86, 316.68 404.29, 320.52 403.13 C 324.36 401.97, 325.94 401.34, 328.18 400.04 C 330.41 398.73, 330.83 397.88, 331.70 396.60 C 332.57 395.32, 332.51 394.54, 332.52 393.63 C 332.53 392.72, 332.27 392.31, 331.76 392.03 C 331.25 391.76, 330.45 392.20, 329.98 392.26 C 329.52 392.31, 329.81 392.30, 329.42 392.30 C 329.04 392.30, 329.03 392.01, 328.07 392.26 C 327.12 392.50, 326.58 392.56, 324.64 393.53 C 322.69 394.49, 321.70 395.66, 318.35 397.09 C 315.00 398.52, 312.78 399.44, 307.88 400.65 C 302.97 401.87, 299.79 402.46, 293.83 403.15 C 287.88 403.85, 284.29 404.16, 278.08 404.11 C 271.86 404.07, 268.47 403.94, 262.76 402.93 C 257.05 401.92, 254.08 401.12, 249.52 399.06 C 244.96 397.00, 242.94 395.73, 239.97 392.62 C 236.99 389.51, 235.93 387.82, 234.63 383.52 C 233.33 379.22, 233.00 376.64, 233.47 371.12 C 233.94 365.60, 234.77 362.27, 237.00 355.93 C 239.24 349.59, 241.12 345.94, 244.64 339.42 C 248.16 332.90, 250.57 329.33, 254.62 323.33 C 258.66 317.34, 261.03 314.25, 264.87 309.45 C 268.72 304.64, 270.89 302.57, 273.84 299.32 C 276.79 296.07, 278.26 295.33, 279.62 293.18 C 280.99 291.04, 281.00 290.01, 280.65 288.60 C 280.31 287.19, 279.37 286.31, 277.91 286.15" style="stroke: #e8d5a0; fill: #e8d5a0;"/><path d="M 262.63,351.46 C 263.74 352.36, 264.67 352.69, 266.99 352.43 C 269.32 352.17, 270.53 351.33, 274.27 350.17 C 278.01 349.02, 280.54 348.00, 285.71 346.65 C 290.88 345.31, 294.15 344.61, 300.11 343.43 C 306.07 342.24, 309.51 341.62, 315.51 340.74 C 321.51 339.85, 324.95 339.53, 330.10 339.01 C 335.25 338.49, 337.72 338.66, 341.26 338.13 C 344.79 337.59, 346.51 337.30, 347.77 336.34 C 349.03 335.38, 348.97 334.11, 347.57 333.33 C 346.18 332.55, 344.41 332.38, 340.79 332.43 C 337.17 332.48, 334.69 332.91, 329.48 333.57 C 324.28 334.24, 320.82 334.83, 314.76 335.75 C 308.70 336.68, 305.26 337.27, 299.19 338.20 C 293.13 339.14, 289.82 339.60, 284.43 340.42 C 279.05 341.24, 276.25 341.50, 272.27 342.30 C 268.29 343.10, 266.70 343.31, 264.53 344.44 C 262.37 345.56, 261.82 346.53, 261.44 347.93 C 261.06 349.33, 261.52 350.55, 262.63 351.46" style="stroke: #e8d5a0; fill: #e8d5a0;"/><path d="M 400.77,351.48 C 401.05 349.94, 400.64 348.65, 399.27 346.88 C 397.91 345.10, 396.77 343.80, 393.94 342.60 C 391.11 341.40, 388.89 340.82, 385.13 340.88 C 381.38 340.93, 379.18 341.47, 375.18 342.88 C 371.19 344.28, 368.96 345.39, 365.16 347.89 C 361.36 350.40, 359.19 352.02, 356.17 355.40 C 353.14 358.77, 351.47 360.90, 350.05 364.76 C 348.62 368.63, 348.10 371.17, 349.04 374.72 C 349.98 378.26, 351.54 380.56, 354.74 382.48 C 357.93 384.41, 360.58 384.55, 365.02 384.34 C 369.45 384.13, 372.12 383.26, 376.92 381.44 C 381.73 379.61, 384.44 378.07, 389.02 375.20 C 393.61 372.32, 396.00 370.34, 399.84 367.08 C 403.67 363.82, 405.65 361.92, 408.19 358.91 C 410.74 355.89, 412.02 354.26, 412.56 352.01 C 413.10 349.76, 412.13 348.25, 410.89 347.65 C 409.65 347.04, 407.57 347.11, 406.38 348.98 C 405.20 350.85, 405.05 352.77, 404.96 357.01 C 404.87 361.24, 405.37 364.17, 405.93 370.16 C 406.50 376.14, 406.92 379.80, 407.79 386.93 C 408.66 394.06, 409.25 398.16, 410.28 405.80 C 411.32 413.45, 412.08 417.62, 412.97 425.16 C 413.85 432.70, 414.43 436.62, 414.71 443.49 C 414.99 450.36, 415.02 453.77, 414.37 459.52 C 413.73 465.27, 413.09 467.95, 411.47 472.25 C 409.85 476.54, 408.68 478.27, 406.28 480.98 C 403.88 483.69, 402.46 484.53, 399.47 485.78 C 396.48 487.04, 394.78 487.32, 391.31 487.27 C 387.85 487.21, 385.83 486.96, 382.13 485.52 C 378.43 484.08, 376.25 482.92, 372.79 480.07 C 369.34 477.22, 367.38 475.16, 364.85 471.26 C 362.32 467.35, 361.15 465.08, 360.12 460.56 C 359.10 456.04, 358.88 453.63, 359.71 448.67 C 360.55 443.70, 361.40 440.99, 364.30 435.75 C 367.20 430.51, 369.34 427.67, 374.22 422.46 C 379.09 417.25, 382.27 414.54, 388.65 409.69 C 395.03 404.84, 398.87 402.42, 406.11 398.21 C 413.35 393.99, 417.45 392.05, 424.86 388.62 C 432.27 385.20, 436.24 383.75, 443.17 381.09 C 450.10 378.42, 453.58 377.37, 459.51 375.30 C 465.45 373.23, 468.21 372.41, 472.85 370.73 C 477.49 369.06, 479.61 368.72, 482.69 366.93 C 485.77 365.14, 486.96 364.12, 488.24 361.76 C 489.53 359.40, 489.70 357.74, 489.12 355.14 C 488.54 352.54, 487.68 350.74, 485.35 348.78 C 483.02 346.81, 481.08 345.99, 477.46 345.32 C 473.83 344.65, 471.47 344.79, 467.22 345.44 C 462.98 346.08, 460.52 346.70, 456.25 348.56 C 451.98 350.41, 449.59 351.73, 445.88 354.72 C 442.17 357.71, 440.13 359.64, 437.69 363.51 C 435.25 367.39, 434.15 369.86, 433.69 374.11 C 433.23 378.35, 433.55 381.00, 435.40 384.74 C 437.26 388.48, 439.16 390.33, 442.97 392.80 C 446.78 395.27, 449.50 396.13, 454.47 397.09 C 459.44 398.05, 462.47 398.06, 467.83 397.61 C 473.19 397.17, 476.22 396.50, 481.26 394.87 C 486.30 393.23, 488.97 392.10, 493.03 389.43 C 497.09 386.76, 499.01 385.05, 501.58 381.52 C 504.14 378.00, 505.14 375.76, 505.85 371.81 C 506.56 367.86, 506.27 365.47, 505.12 361.78 C 503.96 358.08, 502.62 356.18, 500.08 353.34 C 497.54 350.49, 495.67 349.18, 492.43 347.56 C 489.20 345.93, 486.94 345.32, 483.90 345.22 C 480.85 345.11, 479.17 346.01, 477.21 347.03 C 475.25 348.06, 474.49 349.07, 474.09 350.34 C 473.69 351.60, 474.28 352.58, 475.20 353.36 C 476.13 354.13, 477.16 353.93, 478.72 354.21 C 480.28 354.50, 481.05 354.42, 483.00 354.78 C 484.96 355.15, 486.30 355.14, 488.49 356.04 C 490.68 356.94, 492.11 357.60, 493.94 359.27 C 495.77 360.95, 496.70 362.11, 497.66 364.41 C 498.61 366.70, 499.00 368.06, 498.71 370.73 C 498.42 373.40, 498.02 375.04, 496.21 377.77 C 494.40 380.51, 493.01 382.10, 489.66 384.40 C 486.30 386.71, 483.91 387.85, 479.45 389.30 C 475.00 390.75, 472.12 391.34, 467.38 391.66 C 462.64 391.97, 459.88 391.78, 455.74 390.88 C 451.59 389.98, 449.46 389.00, 446.64 387.16 C 443.82 385.31, 442.85 384.10, 441.64 381.65 C 440.43 379.20, 440.24 377.80, 440.60 374.90 C 440.96 372.00, 441.55 370.13, 443.45 367.16 C 445.35 364.19, 447.00 362.45, 450.10 360.06 C 453.19 357.68, 455.35 356.53, 458.93 355.25 C 462.50 353.96, 464.67 353.68, 467.97 353.64 C 471.27 353.60, 472.93 354.44, 475.43 355.04 C 477.94 355.65, 478.89 356.21, 480.49 356.67 C 482.09 357.13, 482.88 357.00, 483.44 357.34 C 484.00 357.69, 484.14 357.63, 483.30 358.40 C 482.46 359.16, 481.74 359.64, 479.25 361.16 C 476.77 362.68, 475.11 363.97, 470.87 366.01 C 466.63 368.05, 463.86 369.04, 458.04 371.37 C 452.23 373.70, 448.74 374.83, 441.81 377.65 C 434.87 380.47, 430.88 381.95, 423.39 385.46 C 415.90 388.97, 411.75 390.92, 404.36 395.18 C 396.96 399.43, 393.05 401.83, 386.43 406.73 C 379.82 411.62, 376.49 414.30, 371.28 419.66 C 366.07 425.02, 363.66 427.89, 360.38 433.51 C 357.09 439.14, 355.94 442.15, 354.84 447.78 C 353.74 453.41, 353.85 456.36, 354.88 461.66 C 355.91 466.96, 357.21 469.69, 360.01 474.29 C 362.82 478.89, 364.94 481.24, 368.89 484.67 C 372.84 488.10, 375.30 489.59, 379.77 491.42 C 384.24 493.25, 386.79 493.79, 391.25 493.82 C 395.71 493.85, 398.18 493.40, 402.07 491.57 C 405.95 489.73, 407.85 488.19, 410.68 484.66 C 413.50 481.13, 414.58 478.84, 416.19 473.90 C 417.80 468.95, 418.23 466.06, 418.72 459.94 C 419.22 453.82, 419.07 450.35, 418.68 443.30 C 418.30 436.26, 417.67 432.31, 416.78 424.71 C 415.90 417.11, 415.14 412.95, 414.25 405.30 C 413.36 397.66, 412.82 393.57, 412.34 386.50 C 411.86 379.43, 411.70 375.76, 411.85 369.95 C 412.01 364.14, 412.75 361.41, 413.10 357.45 C 413.46 353.49, 414.18 352.20, 413.63 350.15 C 413.08 348.11, 411.80 347.58, 410.35 347.25 C 408.91 346.91, 407.98 347.07, 406.42 348.49 C 404.85 349.91, 404.68 351.56, 402.54 354.35 C 400.40 357.14, 399.06 359.32, 395.72 362.45 C 392.37 365.58, 390.02 367.44, 385.81 369.99 C 381.61 372.53, 378.90 373.77, 374.69 375.16 C 370.47 376.55, 367.95 376.85, 364.73 376.94 C 361.51 377.03, 360.25 376.39, 358.58 375.60 C 356.92 374.81, 356.69 374.60, 356.42 372.98 C 356.15 371.37, 356.19 370.08, 357.24 367.54 C 358.28 365.01, 359.28 362.98, 361.66 360.31 C 364.04 357.64, 365.97 356.10, 369.14 354.18 C 372.31 352.27, 374.42 351.44, 377.51 350.74 C 380.60 350.04, 382.12 350.30, 384.59 350.70 C 387.07 351.10, 387.99 352.04, 389.87 352.73 C 391.75 353.42, 392.41 353.79, 394.01 354.16 C 395.62 354.53, 396.53 355.11, 397.89 354.57 C 399.24 354.04, 400.50 353.02, 400.77 351.48" style="stroke: #e8d5a0; fill: #e8d5a0;"/><path d="M 531.25,365.05 C 529.93 365.70, 529.56 366.56, 528.77 368.19 C 527.97 369.83, 527.68 370.97, 527.28 373.23 C 526.88 375.48, 526.71 377.12, 526.76 379.48 C 526.81 381.83, 526.78 383.30, 527.53 385.01 C 528.28 386.73, 529.16 387.53, 530.49 388.05 C 531.83 388.57, 532.96 388.56, 534.20 387.60 C 535.43 386.65, 536.39 385.69, 536.68 383.28 C 536.97 380.88, 535.94 379.03, 535.66 375.57 C 535.37 372.12, 535.02 369.77, 535.27 366.01 C 535.53 362.25, 535.94 360.13, 536.95 356.79 C 537.95 353.45, 538.67 351.84, 540.31 349.32 C 541.95 346.80, 542.80 345.89, 545.14 344.21 C 547.48 342.52, 548.81 341.92, 552.02 340.90 C 555.24 339.88, 557.17 339.49, 561.22 339.12 C 565.26 338.75, 567.66 338.76, 572.23 339.06 C 576.80 339.35, 579.40 339.73, 584.07 340.60 C 588.75 341.46, 591.43 342.28, 595.60 343.38 C 599.76 344.47, 601.73 345.49, 604.91 346.07 C 608.09 346.64, 609.97 346.85, 611.48 346.25 C 612.99 345.64, 613.39 344.39, 612.46 343.04 C 611.52 341.69, 609.86 340.72, 606.80 339.50 C 603.75 338.28, 601.52 337.92, 597.19 336.92 C 592.86 335.92, 590.05 335.32, 585.16 334.49 C 580.26 333.66, 577.60 333.18, 572.71 332.76 C 567.83 332.33, 565.28 332.12, 560.73 332.36 C 556.18 332.61, 553.92 332.84, 549.94 334.00 C 545.96 335.16, 543.99 335.92, 540.83 338.15 C 537.67 340.39, 536.33 341.94, 534.12 345.19 C 531.91 348.45, 531.18 350.49, 529.79 354.43 C 528.39 358.36, 528.02 360.67, 527.15 364.85 C 526.28 369.04, 525.86 371.50, 525.42 375.35 C 524.98 379.20, 524.30 381.36, 524.94 384.09 C 525.59 386.82, 526.90 387.90, 528.65 388.99 C 530.40 390.08, 531.85 390.11, 533.69 389.55 C 535.53 388.98, 536.71 388.04, 537.86 386.16 C 539.00 384.27, 539.10 382.66, 539.41 380.13 C 539.71 377.61, 539.66 375.92, 539.37 373.53 C 539.09 371.13, 538.79 369.87, 537.98 368.15 C 537.17 366.43, 536.67 365.55, 535.32 364.93 C 533.97 364.32, 532.56 364.40, 531.25 365.05" style="stroke: #e8d5a0; fill: #e8d5a0;"/><path d="M 788.62,294.95 C 787.25 295.14, 786.17 295.17, 784.77 297.42 C 783.37 299.66, 783.31 301.49, 781.60 306.20 C 779.90 310.90, 778.85 314.19, 776.25 320.93 C 773.64 327.67, 771.86 332.03, 768.59 339.91 C 765.32 347.79, 763.30 352.49, 759.89 360.32 C 756.48 368.14, 754.58 372.33, 751.53 379.05 C 748.48 385.76, 746.93 388.98, 744.63 393.89 C 742.34 398.80, 740.52 400.86, 740.06 403.59 C 739.60 406.32, 741.21 407.84, 742.34 407.53 C 743.47 407.22, 744.39 406.25, 745.70 402.02 C 747.01 397.78, 747.09 394.23, 748.90 386.35 C 750.72 378.47, 751.99 372.80, 754.79 362.63 C 757.59 352.46, 759.45 345.98, 762.90 335.50 C 766.34 325.02, 768.37 319.33, 772.03 310.23 C 775.68 301.13, 777.75 296.80, 781.18 290.00 C 784.60 283.19, 786.38 280.31, 789.17 276.21 C 791.95 272.11, 793.50 271.06, 795.09 269.50 C 796.69 267.94, 796.19 267.65, 797.14 268.39 C 798.09 269.13, 798.35 269.91, 799.85 273.19 C 801.34 276.47, 802.69 278.99, 804.61 284.80 C 806.52 290.61, 807.61 294.63, 809.44 302.23 C 811.28 309.83, 812.14 314.53, 813.78 322.80 C 815.42 331.06, 816.18 335.68, 817.64 343.55 C 819.10 351.41, 819.85 355.39, 821.08 362.12 C 822.32 368.84, 822.99 372.00, 823.83 377.19 C 824.67 382.37, 824.67 384.73, 825.30 388.05 C 825.93 391.38, 826.50 392.30, 826.99 393.80 C 827.48 395.31, 827.30 395.10, 827.77 395.58 C 828.25 396.06, 828.57 396.56, 829.36 396.19 C 830.16 395.82, 831.31 395.61, 831.76 393.74 C 832.21 391.88, 832.28 390.37, 831.62 386.87 C 830.97 383.36, 829.82 381.31, 828.49 376.20 C 827.16 371.10, 826.42 368.00, 824.97 361.34 C 823.52 354.67, 822.74 350.72, 821.24 342.87 C 819.73 335.02, 818.98 330.41, 817.46 322.10 C 815.94 313.78, 815.17 309.07, 813.63 301.31 C 812.09 293.55, 811.34 289.50, 809.74 283.30 C 808.14 277.09, 807.73 274.19, 805.64 270.30 C 803.55 266.40, 802.12 264.87, 799.28 263.83 C 796.45 262.78, 794.21 263.07, 791.46 265.09 C 788.70 267.11, 788.16 269.24, 785.50 273.94 C 782.84 278.63, 781.40 281.51, 778.16 288.55 C 774.93 295.59, 772.92 299.95, 769.31 309.15 C 765.70 318.36, 763.67 324.07, 760.12 334.57 C 756.56 345.08, 754.64 351.55, 751.54 361.68 C 748.44 371.81, 746.90 377.43, 744.62 385.23 C 742.35 393.03, 740.92 396.23, 740.14 400.68 C 739.37 405.13, 739.65 406.44, 740.74 407.48 C 741.83 408.52, 743.93 408.24, 745.58 405.88 C 747.24 403.53, 747.13 400.79, 749.02 395.73 C 750.91 390.67, 752.20 387.37, 755.04 380.58 C 757.89 373.79, 759.79 369.60, 763.23 361.78 C 766.66 353.95, 768.70 349.26, 772.20 341.47 C 775.70 333.68, 777.63 329.37, 780.71 322.84 C 783.79 316.31, 785.36 313.21, 787.61 308.80 C 789.85 304.39, 791.15 303.23, 791.95 300.77 C 792.75 298.31, 792.26 297.66, 791.59 296.49 C 790.93 295.33, 789.98 294.77, 788.62 294.95" style="stroke: #e8d5a0; fill: #e8d5a0;"/><path d="M 754.88,359.15 C 755.71 360.17, 756.17 360.46, 758.41 360.85 C 760.65 361.24, 762.01 361.46, 766.07 361.11 C 770.12 360.77, 776.26 361.11, 778.68 359.13 C 781.09 357.16, 780.82 352.86, 778.13 351.24 C 775.45 349.62, 769.39 350.70, 765.25 351.02 C 761.11 351.34, 759.61 351.89, 757.41 352.83 C 755.21 353.78, 754.77 354.49, 754.26 355.75 C 753.76 357.01, 754.05 358.13, 754.88 359.15" style="stroke: #e8d5a0; fill: #e8d5a0;"/><path d="M 877.73,272.30 C 876.43 272.91, 875.42 273.40, 874.68 275.96 C 873.95 278.53, 874.36 280.39, 874.06 285.12 C 873.76 289.85, 873.64 293.07, 873.19 299.62 C 872.73 306.17, 872.39 310.34, 871.78 317.88 C 871.17 325.43, 870.72 329.80, 870.12 337.33 C 869.53 344.85, 869.20 348.81, 868.82 355.51 C 868.43 362.21, 868.32 365.40, 868.20 370.83 C 868.08 376.26, 867.81 378.68, 868.23 382.65 C 868.65 386.62, 868.74 388.43, 870.28 390.69 C 871.81 392.95, 873.37 393.67, 875.89 393.94 C 878.41 394.21, 880.44 394.12, 882.89 392.04 C 885.33 389.95, 885.70 387.68, 888.12 383.51 C 890.53 379.34, 891.81 376.51, 894.96 371.20 C 898.11 365.88, 900.10 362.56, 903.88 356.92 C 907.66 351.28, 909.99 348.07, 913.86 343.00 C 917.73 337.92, 919.93 335.46, 923.23 331.54 C 926.52 327.62, 928.32 326.16, 930.33 323.38 C 932.34 320.59, 933.15 319.15, 933.29 317.63 C 933.43 316.11, 932.49 315.35, 931.03 315.78 C 929.57 316.21, 928.38 317.29, 926.00 319.78 C 923.63 322.28, 922.34 324.17, 919.16 328.25 C 915.98 332.33, 913.96 334.99, 910.12 340.18 C 906.27 345.37, 903.91 348.60, 899.94 354.20 C 895.97 359.80, 893.83 363.11, 890.28 368.18 C 886.73 373.24, 884.95 375.96, 882.18 379.54 C 879.41 383.12, 877.73 384.11, 876.43 386.09 C 875.13 388.07, 875.80 389.04, 875.67 389.44 C 875.55 389.84, 876.06 389.59, 875.80 388.07 C 875.54 386.55, 874.94 385.31, 874.39 381.85 C 873.83 378.39, 873.31 375.99, 873.03 370.76 C 872.75 365.53, 872.78 362.32, 873.01 355.70 C 873.23 349.08, 873.53 345.13, 874.16 337.65 C 874.78 330.18, 875.26 325.80, 876.12 318.31 C 876.98 310.82, 877.49 306.66, 878.46 300.19 C 879.42 293.73, 880.08 290.59, 880.95 285.98 C 881.81 281.38, 882.75 279.79, 882.80 277.18 C 882.84 274.56, 882.17 273.89, 881.16 272.91 C 880.15 271.94, 879.02 271.69, 877.73 272.30" style="stroke: #e8d5a0; fill: #e8d5a0;"/><path d="M 903.18,350.80 C 902.50 352.38, 902.47 354.07, 903.46 357.07 C 904.45 360.06, 905.82 362.04, 908.13 365.77 C 910.44 369.51, 912.02 371.99, 915.02 375.74 C 918.03 379.50, 919.84 381.40, 923.16 384.55 C 926.47 387.70, 928.18 389.16, 931.60 391.48 C 935.03 393.80, 936.71 394.92, 940.27 396.16 C 943.82 397.40, 945.77 397.85, 949.37 397.70 C 952.97 397.54, 954.92 397.08, 958.28 395.41 C 961.64 393.73, 963.23 392.38, 966.17 389.32 C 969.12 386.26, 970.55 384.15, 973.00 380.12 C 975.45 376.10, 976.53 373.51, 978.43 369.20 C 980.34 364.89, 981.35 362.33, 982.52 358.57 C 983.69 354.81, 984.61 352.83, 984.30 350.41 C 983.98 347.98, 982.58 346.73, 980.94 346.45 C 979.30 346.17, 977.35 346.86, 976.09 349.00 C 974.84 351.13, 974.77 353.37, 974.68 357.13 C 974.58 360.89, 975.08 363.48, 975.62 367.80 C 976.17 372.13, 976.59 374.67, 977.40 378.74 C 978.21 382.81, 978.27 385.09, 979.68 388.15 C 981.09 391.20, 982.58 392.66, 984.43 394.00 C 986.28 395.34, 987.75 395.10, 988.92 394.83 C 990.10 394.56, 990.22 393.60, 990.31 392.64 C 990.40 391.68, 989.84 391.57, 989.35 390.02 C 988.86 388.46, 988.70 387.44, 987.86 384.87 C 987.01 382.30, 985.87 380.71, 985.13 377.16 C 984.39 373.62, 984.25 371.13, 984.16 367.15 C 984.07 363.18, 984.66 360.74, 984.68 357.29 C 984.70 353.84, 985.06 351.99, 984.27 349.89 C 983.48 347.79, 982.19 346.97, 980.73 346.79 C 979.27 346.62, 978.11 347.11, 976.97 349.02 C 975.83 350.93, 976.02 352.85, 975.04 356.34 C 974.05 359.84, 973.63 362.49, 972.04 366.51 C 970.45 370.53, 969.30 372.92, 967.06 376.43 C 964.83 379.94, 963.34 381.69, 960.88 384.06 C 958.43 386.42, 957.18 387.15, 954.79 388.28 C 952.41 389.41, 951.41 389.56, 948.97 389.71 C 946.53 389.85, 945.31 389.82, 942.60 389.01 C 939.88 388.21, 938.35 387.55, 935.39 385.69 C 932.43 383.84, 930.72 382.58, 927.78 379.73 C 924.84 376.88, 923.26 375.01, 920.69 371.44 C 918.12 367.86, 916.85 365.45, 914.94 361.85 C 913.03 358.26, 912.75 355.98, 911.14 353.46 C 909.53 350.93, 908.49 349.74, 906.90 349.21 C 905.31 348.67, 903.87 349.23, 903.18 350.80" style="stroke: #e8d5a0; fill: #e8d5a0;"/><path d="M 991.36,300.29 C 992.90 299.59, 994.00 298.56, 993.92 298.34 C 993.83 298.11, 992.37 298.50, 990.94 299.17 C 989.51 299.83, 987.61 301.11, 986.77 301.66 C 985.94 302.20, 985.76 302.77, 986.76 301.89 C 987.77 301.02, 991.09 298.48, 991.80 297.27 C 992.50 296.07, 991.54 295.57, 990.27 295.86 C 989.00 296.14, 986.92 297.59, 985.46 298.70 C 983.99 299.80, 982.78 300.74, 982.93 301.37 C 983.08 301.99, 984.52 302.03, 986.20 301.82 C 987.89 301.60, 989.82 300.98, 991.36 300.29" style="stroke: #e8d5a0; fill: #e8d5a0;"/><path d="M 1025.61,345.40 C 1024.41 346.20, 1024.08 347.06, 1023.49 349.08 C 1022.90 351.09, 1022.76 352.38, 1022.66 355.48 C 1022.57 358.58, 1023.04 360.83, 1023.04 364.57 C 1023.04 368.31, 1022.88 370.58, 1022.66 374.18 C 1022.44 377.77, 1021.52 379.73, 1021.93 382.56 C 1022.34 385.39, 1023.11 386.83, 1024.73 388.33 C 1026.35 389.83, 1027.81 390.41, 1030.01 390.07 C 1032.21 389.73, 1033.86 389.20, 1035.74 386.64 C 1037.62 384.08, 1037.60 381.54, 1039.42 377.28 C 1041.24 373.02, 1042.41 370.08, 1044.85 365.33 C 1047.28 360.58, 1048.88 357.63, 1051.59 353.51 C 1054.30 349.40, 1056.08 347.37, 1058.42 344.74 C 1060.76 342.11, 1061.99 341.42, 1063.28 340.36 C 1064.56 339.30, 1064.51 338.97, 1064.85 339.44 C 1065.19 339.92, 1064.66 340.74, 1064.99 342.75 C 1065.32 344.76, 1065.95 346.25, 1066.50 349.50 C 1067.06 352.75, 1067.48 355.05, 1067.78 359.00 C 1068.08 362.94, 1068.02 365.37, 1068.02 369.23 C 1068.03 373.09, 1067.17 375.22, 1067.80 378.30 C 1068.42 381.39, 1069.28 382.90, 1071.16 384.66 C 1073.05 386.41, 1074.63 387.21, 1077.23 387.08 C 1079.84 386.95, 1081.48 386.37, 1084.19 384.01 C 1086.91 381.65, 1087.81 379.23, 1090.82 375.30 C 1093.83 371.37, 1095.73 368.64, 1099.24 364.36 C 1102.75 360.09, 1104.90 357.45, 1108.37 353.91 C 1111.84 350.38, 1114.01 348.81, 1116.59 346.69 C 1119.17 344.56, 1120.23 343.96, 1121.26 343.27 C 1122.30 342.58, 1121.89 342.34, 1121.78 343.23 C 1121.67 344.13, 1120.83 345.10, 1120.73 347.76 C 1120.63 350.42, 1121.07 352.60, 1121.28 356.55 C 1121.50 360.50, 1121.50 363.10, 1121.81 367.53 C 1122.12 371.95, 1122.09 374.48, 1122.85 378.66 C 1123.61 382.84, 1123.89 385.05, 1125.62 388.45 C 1127.36 391.84, 1128.57 393.59, 1131.52 395.64 C 1134.47 397.69, 1136.56 398.33, 1140.37 398.69 C 1144.18 399.05, 1146.34 398.61, 1150.56 397.43 C 1154.78 396.25, 1157.04 395.17, 1161.45 392.78 C 1165.87 390.39, 1168.30 388.76, 1172.64 385.49 C 1176.98 382.21, 1179.32 380.14, 1183.15 376.42 C 1186.98 372.70, 1188.86 370.53, 1191.80 366.89 C 1194.74 363.25, 1196.34 361.49, 1197.86 358.21 C 1199.38 354.94, 1199.75 353.19, 1199.40 350.53 C 1199.04 347.87, 1198.20 346.41, 1196.11 344.92 C 1194.01 343.44, 1191.92 342.54, 1188.92 343.09 C 1185.91 343.64, 1184.03 345.00, 1181.09 347.67 C 1178.14 350.34, 1176.74 352.53, 1174.20 356.43 C 1171.65 360.32, 1170.09 362.70, 1168.36 367.15 C 1166.63 371.59, 1165.70 374.21, 1165.54 378.65 C 1165.37 383.09, 1165.67 385.71, 1167.53 389.35 C 1169.39 392.99, 1171.20 394.72, 1174.84 396.86 C 1178.49 399.01, 1181.06 399.54, 1185.77 400.06 C 1190.47 400.58, 1193.38 400.40, 1198.36 399.47 C 1203.35 398.54, 1206.11 397.55, 1210.68 395.40 C 1215.25 393.26, 1217.62 391.80, 1221.22 388.74 C 1224.83 385.67, 1226.57 383.84, 1228.70 380.07 C 1230.84 376.29, 1231.62 373.95, 1231.88 369.87 C 1232.14 365.79, 1231.66 363.37, 1230.01 359.68 C 1228.37 356.00, 1226.72 354.13, 1223.67 351.45 C 1220.61 348.76, 1218.47 347.75, 1214.75 346.26 C 1211.02 344.76, 1208.71 344.13, 1205.05 343.96 C 1201.39 343.80, 1199.12 344.03, 1196.44 345.43 C 1193.77 346.82, 1192.31 348.84, 1191.66 350.94 C 1191.01 353.03, 1192.21 355.05, 1193.19 355.91 C 1194.17 356.78, 1195.85 355.77, 1196.56 355.27 C 1197.28 354.76, 1196.26 353.75, 1196.78 353.39 C 1197.31 353.03, 1197.63 353.54, 1199.20 353.48 C 1200.77 353.42, 1202.10 352.98, 1204.65 353.09 C 1207.19 353.20, 1209.13 353.13, 1211.92 354.01 C 1214.71 354.88, 1216.35 355.68, 1218.60 357.46 C 1220.84 359.24, 1221.93 360.50, 1223.15 362.91 C 1224.38 365.33, 1224.79 366.75, 1224.73 369.53 C 1224.67 372.32, 1224.37 373.96, 1222.84 376.84 C 1221.32 379.73, 1220.06 381.37, 1217.10 383.95 C 1214.14 386.54, 1212.03 387.93, 1208.05 389.77 C 1204.08 391.61, 1201.54 392.43, 1197.24 393.15 C 1192.94 393.86, 1190.32 393.83, 1186.54 393.37 C 1182.75 392.91, 1180.86 392.28, 1178.31 390.85 C 1175.76 389.42, 1174.94 388.58, 1173.77 386.21 C 1172.61 383.84, 1172.26 382.28, 1172.49 379.01 C 1172.72 375.75, 1173.31 373.48, 1174.93 369.88 C 1176.54 366.29, 1178.10 364.08, 1180.57 361.05 C 1183.05 358.02, 1185.00 356.67, 1187.30 354.74 C 1189.59 352.80, 1190.78 352.43, 1192.05 351.36 C 1193.32 350.29, 1193.45 349.62, 1193.64 349.40 C 1193.84 349.17, 1193.55 349.12, 1193.03 350.23 C 1192.50 351.34, 1192.26 352.39, 1191.01 354.97 C 1189.76 357.55, 1189.16 359.65, 1186.77 363.11 C 1184.38 366.57, 1182.60 368.75, 1179.08 372.28 C 1175.55 375.81, 1173.25 377.79, 1169.14 380.74 C 1165.04 383.69, 1162.61 385.11, 1158.53 387.04 C 1154.46 388.97, 1152.26 389.63, 1148.78 390.39 C 1145.30 391.14, 1143.69 391.10, 1141.14 390.83 C 1138.59 390.57, 1137.77 390.25, 1136.03 389.07 C 1134.29 387.90, 1133.61 387.31, 1132.42 384.98 C 1131.23 382.64, 1130.67 380.94, 1130.07 377.38 C 1129.46 373.83, 1129.42 371.40, 1129.39 367.22 C 1129.35 363.04, 1129.73 360.56, 1129.88 356.48 C 1130.03 352.39, 1130.83 350.09, 1130.12 346.79 C 1129.41 343.50, 1128.37 341.84, 1126.32 340.01 C 1124.27 338.17, 1122.69 337.37, 1119.88 337.62 C 1117.08 337.87, 1115.49 338.83, 1112.30 341.25 C 1109.12 343.66, 1107.52 345.89, 1103.96 349.70 C 1100.41 353.51, 1098.26 356.14, 1094.52 360.31 C 1090.78 364.47, 1088.57 367.07, 1085.25 370.53 C 1081.93 373.99, 1079.89 375.41, 1077.94 377.61 C 1075.99 379.82, 1075.88 380.74, 1075.49 381.56 C 1075.09 382.38, 1075.68 382.56, 1075.97 381.71 C 1076.27 380.87, 1076.92 379.88, 1076.96 377.34 C 1077.00 374.80, 1076.35 372.77, 1076.15 369.02 C 1075.96 365.26, 1076.10 362.74, 1075.97 358.56 C 1075.85 354.38, 1076.06 351.98, 1075.53 348.12 C 1075.00 344.26, 1074.97 342.01, 1073.32 339.27 C 1071.67 336.53, 1069.92 335.38, 1067.27 334.42 C 1064.62 333.45, 1062.85 333.29, 1060.06 334.45 C 1057.26 335.61, 1056.02 337.10, 1053.29 340.24 C 1050.56 343.38, 1049.24 345.76, 1046.42 350.15 C 1043.60 354.54, 1041.99 357.49, 1039.18 362.18 C 1036.37 366.87, 1034.78 369.70, 1032.35 373.60 C 1029.93 377.51, 1028.08 379.13, 1027.04 381.72 C 1026.01 384.30, 1026.69 385.51, 1027.19 386.52 C 1027.69 387.54, 1028.67 387.58, 1029.55 386.78 C 1030.43 385.99, 1031.17 384.98, 1031.58 382.55 C 1031.99 380.12, 1031.46 378.15, 1031.60 374.63 C 1031.74 371.11, 1031.98 368.76, 1032.29 364.96 C 1032.61 361.15, 1033.19 358.86, 1033.19 355.62 C 1033.18 352.38, 1033.00 350.88, 1032.27 348.77 C 1031.53 346.66, 1030.84 345.74, 1029.51 345.07 C 1028.18 344.40, 1026.82 344.60, 1025.61 345.40" style="stroke: #e8d5a0; fill: #e8d5a0;"/><path d="M 1248.33,347.13 C 1247.12 347.73, 1246.51 348.25, 1245.85 350.12 C 1245.18 351.99, 1244.80 353.37, 1245.01 356.48 C 1245.22 359.59, 1246.05 361.69, 1246.89 365.68 C 1247.72 369.67, 1248.13 372.20, 1249.19 376.42 C 1250.25 380.65, 1250.77 383.00, 1252.18 386.81 C 1253.60 390.62, 1254.22 392.55, 1256.26 395.48 C 1258.30 398.41, 1259.57 399.79, 1262.37 401.47 C 1265.17 403.15, 1266.99 403.83, 1270.28 403.88 C 1273.56 403.92, 1275.56 403.56, 1278.79 401.71 C 1282.02 399.86, 1283.42 398.16, 1286.42 394.63 C 1289.43 391.10, 1290.92 388.72, 1293.81 384.05 C 1296.70 379.39, 1298.26 376.35, 1300.87 371.30 C 1303.47 366.25, 1304.89 363.36, 1306.83 358.82 C 1308.77 354.27, 1309.76 352.03, 1310.56 348.58 C 1311.37 345.13, 1311.43 343.12, 1310.87 341.55 C 1310.31 339.99, 1308.98 339.72, 1307.75 340.75 C 1306.52 341.79, 1306.02 343.57, 1304.73 346.72 C 1303.43 349.87, 1303.07 352.11, 1301.27 356.49 C 1299.48 360.88, 1298.27 363.81, 1295.75 368.64 C 1293.22 373.48, 1291.55 376.45, 1288.64 380.68 C 1285.73 384.91, 1283.98 387.04, 1281.18 389.78 C 1278.39 392.52, 1276.83 393.18, 1274.65 394.39 C 1272.47 395.59, 1271.88 395.77, 1270.28 395.82 C 1268.68 395.87, 1268.14 395.62, 1266.67 394.62 C 1265.21 393.62, 1264.43 392.91, 1262.95 390.81 C 1261.47 388.71, 1260.54 387.33, 1259.30 384.12 C 1258.06 380.92, 1257.47 378.68, 1256.76 374.77 C 1256.04 370.86, 1255.87 368.40, 1255.72 364.56 C 1255.57 360.73, 1256.28 358.56, 1255.99 355.59 C 1255.71 352.63, 1255.13 351.42, 1254.30 349.73 C 1253.47 348.05, 1253.05 347.68, 1251.86 347.16 C 1250.66 346.64, 1249.53 346.54, 1248.33 347.13" style="stroke: #e8d5a0; fill: #e8d5a0;"/></svg>